@startuml
用户 <|-- 教师
用户 <|-- 学生
用户 -- 用户状态
专业 "1"--"n" 学生
教师 "1"--"n" 部门
教师 "1"--"n" 课程教师关联
课程 "1"--"n" 课程教师关联
课程 "1"--"n" 课程专业学期关联
专业 "1"--"n" 课程专业学期关联
学期 "1"--"n" 课程专业学期关联
教师 "1"--"n" 实验
课程 "1"--"n" 实验
实验 "1"--"n" 评分标准
总评分 "1"--"n" 详细评分
评分标准 "1"--"n" 详细评分
class 用户{
<b>user_id</b> （用户编号）
name（真实姓名）
github_name（github账户名）
password（密码）
<b>status_id</b>（状态编号）
}
class 用户状态{
<b>status_id</b>（状态编号）
status_name（状态名称）
}
class 教师{
<b>teacher_id</b>（教师职工号）
<b>user_id</b>（用户编号）
<b>department_id</b>（部门编号）
}
class 部门{
<b>department_id</b>（部门编号）
department_name（部门名称）
}
class 学生{
<b>student_id</b>（学生学号）
<b>user_id</b>（用户编号）
<b>major_id</b>（专业编号）
grade_num（年级）
class_num（班级）
}
class 专业{
<b>major_id</b>（专业编号）
major_name （专业名称）
}
class 课程{
<b>course_id</b>（课程编号）
course_name （课程名称）
}

class 学期{
<b>term_id</b>（学期编号）
term_name（学期名称）
term_starttime（学期开始时间）
term_endtime（学期结束时间）
}
class 课程教师关联{
<b>course_teacher_id</b> （课程与教师关联编号）
<b>course_id</b>（课程编号）
<b>teacher_id</b>（教师职工号）
}
class 课程专业学期关联{
<b>course_major_term_id</b> （课程、专业与学期关联编号）
<b>course_id</b>（课程编号）
<b>major_id</b>（专业编号）
<b>course_id</b>（学期编号）
}
class 实验{
<b>test_id</b> （实验编号）
test_name （实验名称）
<b>teacher_id</b>（教师职工号）
<b>course_id</b>（课程编号）
test_url （实验说明的github地址）
}
class 评分标准{
<b>standard_id</b> （评分标准编号）
<b>test_id</b> （实验编号）
standard_name （标准名称）
standard_detail （标准描述）
standard_min （标准占比）
}
class 详细评分{
<b>detail_score_id</b> （详细评分编号）
<b>test_id</b> （实验编号）
<b>standard_id</b> （评分标准编号）
<b>total_score_id</b> （总评分编号）
score (分数）
detail_memo （评语）
}
class 总评分{
<b>total_score_id</b> （总评分编号）
total_score （实验总分）
<b>student_id</b> （学生编号）
<b>test_id</b> （实验编号）
total_memo（总评语）
update_date （批改时间）
}
@enduml